<svg width="280" height="62" viewBox="0 0 280 62" fill="none" xmlns="http://www.w3.org/2000/svg">
<path d="M112.282 47.0886H107.181V24.5567L97.7085 47.0886H93.2507L83.8637 24.643V47.0886H78.8487V16.4849H85.7068L95.5653 39.837L105.295 16.4849H112.282V47.0886Z" fill="#F5F5F5"/>
<path d="M124.078 47.0886H119.148V26.0675H124.078V47.0886ZM118.377 18.6863C118.377 16.8734 119.834 15.4058 121.592 15.4058C123.392 15.4058 124.849 16.8734 124.849 18.6863C124.849 20.4992 123.392 21.9237 121.592 21.9237C119.834 21.9237 118.377 20.4992 118.377 18.6863Z" fill="#F5F5F5"/>
<path d="M139.579 30.0386C136.536 30.0386 133.835 32.3263 133.835 36.5565C133.835 40.7866 136.536 43.1606 139.665 43.1606C142.922 43.1606 144.423 40.8729 144.894 39.2758L149.266 40.8729C148.28 44.1534 145.151 47.7361 139.665 47.7361C133.535 47.7361 128.863 42.9448 128.863 36.5565C128.863 30.0818 133.535 25.42 139.536 25.42C145.151 25.42 148.237 28.9595 149.095 32.3263L144.637 33.9666C144.165 32.1105 142.751 30.0386 139.579 30.0386Z" fill="#F5F5F5"/>
<path d="M158.654 34.7435V47.0886H153.682V15.8375H158.654V28.0962C160.068 26.2401 162.426 25.4632 164.612 25.4632C169.755 25.4632 172.241 29.1753 172.241 33.7939V47.0886H167.269V34.6572C167.269 32.0673 166.112 29.9954 162.983 29.9954C160.24 29.9954 158.74 32.0673 158.654 34.7435Z" fill="#F5F5F5"/>
<path d="M181.766 34.2687H192.011C191.925 31.8084 190.296 29.607 186.867 29.607C183.738 29.607 181.938 32.0242 181.766 34.2687ZM192.568 39.7506L196.768 41.0887C195.654 44.7577 192.354 47.7361 187.339 47.7361C181.681 47.7361 176.666 43.5923 176.666 36.4701C176.666 29.8228 181.552 25.42 186.824 25.42C193.254 25.42 197.026 29.6933 197.026 36.3406C197.026 37.1608 196.94 37.8514 196.897 37.9377H181.638C181.766 41.1319 184.252 43.4196 187.339 43.4196C190.339 43.4196 191.882 41.8225 192.568 39.7506Z" fill="#F5F5F5"/>
<path d="M206.749 47.0886H201.777V15.8375H206.749V47.0886Z" fill="#F5F5F5"/>
<path d="M216.635 34.2687H226.879C226.793 31.8084 225.164 29.607 221.735 29.607C218.606 29.607 216.806 32.0242 216.635 34.2687ZM227.436 39.7506L231.637 41.0887C230.522 44.7577 227.222 47.7361 222.207 47.7361C216.549 47.7361 211.534 43.5923 211.534 36.4701C211.534 29.8228 216.42 25.42 221.692 25.42C228.122 25.42 231.894 29.6933 231.894 36.3406C231.894 37.1608 231.808 37.8514 231.765 37.9377H216.506C216.635 41.1319 219.121 43.4196 222.207 43.4196C225.207 43.4196 226.75 41.8225 227.436 39.7506Z" fill="#F5F5F5"/>
<path d="M242.946 19.6359V26.0675H247.275V30.5134H242.946V40.2686C242.946 42.1247 243.761 42.9016 245.604 42.9016C246.289 42.9016 247.104 42.7722 247.318 42.729V46.8728C247.018 47.0023 246.075 47.3476 244.275 47.3476C240.417 47.3476 238.017 45.0167 238.017 41.0887V30.5134H234.159V26.0675H235.231C237.46 26.0675 238.446 24.643 238.446 22.787V19.6359H242.946Z" fill="#F5F5F5"/>
<path d="M261.347 43.247C264.434 43.247 267.177 40.9592 267.177 36.5565C267.177 32.1968 264.434 29.9523 261.347 29.9523C258.304 29.9523 255.518 32.1968 255.518 36.5565C255.518 40.9161 258.304 43.247 261.347 43.247ZM261.347 25.42C267.605 25.42 272.192 30.1249 272.192 36.5565C272.192 43.0311 267.605 47.7361 261.347 47.7361C255.132 47.7361 250.546 43.0311 250.546 36.5565C250.546 30.1249 255.132 25.42 261.347 25.42Z" fill="#F5F5F5"/>
<path d="M275.093 17.6582L274.048 15.6805H273.431V17.6582H272.582V12.6504H274.49C275.451 12.6504 276.047 13.3214 276.047 14.169C276.047 14.8824 275.619 15.4262 274.925 15.5957L276.047 17.6582H275.093ZM273.431 14.9318H274.336C274.855 14.9318 275.191 14.6281 275.191 14.169C275.191 13.7028 274.855 13.3991 274.336 13.3991H273.431V14.9318Z" fill="#F5F5F5"/>
<path d="M0 9.02532C0 4.04077 4.01255 0 8.96229 0H56.8911C61.8408 0 65.8533 4.04077 65.8533 9.02532V52.9747C65.8533 57.9592 61.8408 62 56.8911 62H8.96229C4.01255 62 0 57.9592 0 52.9747V9.02532Z" fill="#F5F5F5"/>
<path d="M54.3365 46.3038C58.441 46.2933 59.6187 40.7388 59.6187 40.7388H48.5259V15.6962C40.1077 15.6962 37.2346 21.7689 36.4137 23.56C30.8195 39.0522 31.8867 35.8222 31.8867 35.8222L26.9734 20.3911C26.9734 20.3911 31.2147 20.2533 32.5829 15.6962H13.0182C7.95605 15.6962 6.23463 21.2612 6.23463 21.2612H15.2475V46.3038C22.1805 46.3038 21.8339 36.2172 21.8339 36.2172L22.1805 26.1306L29.0257 46.3038H34.7719L42.2862 26.125V46.3038H54.3365Z" fill="#001458"/>
<circle cx="274" cy="15" r="5.5" stroke="#F5F5F5"/>
</svg>
